# xmcd
#
# Track frame offsets:
#	150
#	10801
#	30001
#	38364
#
# Disc length: 726 seconds
#
# Revision: 0
# Processed by: cddbd v1.5.1PL2 Copyright (c) Steve Scherf et al.
# Submitted via: dBpowerAMP V4.0
#
DISCID=1602d404
DTITLE=The Sinners - Saturday Sinners
DYEAR=1900
DGENRE=Blues
TTITLE0=Buck
TTITLE1=Payday
TTITLE2=Steamtrain
TTITLE3=Old Fool's Blues
EXTD=
EXTT0=
EXTT1=
EXTT2=
EXTT3=
PLAYORDER=
